<mxfile host="65bd71144e">
    <diagram id="cOPPHnaynSb4PC9Ppda5" name="ページ1">
        <mxGraphModel dx="1403" dy="1644" grid="1" gridSize="10" guides="1" tooltips="1" connect="1" arrows="1" fold="1" page="1" pageScale="1" pageWidth="827" pageHeight="1169" math="0" shadow="0">
            <root>
                <mxCell id="0"/>
                <mxCell id="1" parent="0"/>
                <mxCell id="91" value="" style="shape=cylinder3;whiteSpace=wrap;html=1;boundedLbl=1;backgroundOutline=1;size=12;fontColor=#080808;" parent="1" vertex="1">
                    <mxGeometry x="-37" y="-1079" width="133" height="135" as="geometry"/>
                </mxCell>
                <mxCell id="61" value="" style="rounded=1;whiteSpace=wrap;html=1;fillColor=#cdeb8b;strokeColor=#36393d;" parent="1" vertex="1">
                    <mxGeometry x="-622" y="-1050" width="134" height="90" as="geometry"/>
                </mxCell>
                <mxCell id="46" value="POST" style="text;html=1;strokeColor=none;fillColor=none;align=center;verticalAlign=middle;whiteSpace=wrap;rounded=0;" parent="1" vertex="1">
                    <mxGeometry x="-725" y="-1044" width="60" height="20" as="geometry"/>
                </mxCell>
                <mxCell id="57" value="userId=入力値&lt;br&gt;pass=入力値" style="rounded=1;whiteSpace=wrap;html=1;" parent="1" vertex="1">
                    <mxGeometry x="-769" y="-1025" width="110" height="40" as="geometry"/>
                </mxCell>
                <mxCell id="58" value="" style="endArrow=classic;html=1;entryX=0;entryY=0.5;entryDx=0;entryDy=0;" parent="1" target="57" edge="1">
                    <mxGeometry width="50" height="50" relative="1" as="geometry">
                        <mxPoint x="-800" y="-1005" as="sourcePoint"/>
                        <mxPoint x="-774" y="-944" as="targetPoint"/>
                    </mxGeometry>
                </mxCell>
                <mxCell id="59" value="" style="endArrow=classic;html=1;entryX=0;entryY=0.5;entryDx=0;entryDy=0;exitX=1;exitY=0.5;exitDx=0;exitDy=0;" parent="1" source="57" target="60" edge="1">
                    <mxGeometry width="50" height="50" relative="1" as="geometry">
                        <mxPoint x="-660" y="-1005" as="sourcePoint"/>
                        <mxPoint x="-610" y="-1005" as="targetPoint"/>
                    </mxGeometry>
                </mxCell>
                <mxCell id="60" value="LoginServlet&lt;br&gt;doPost()" style="rounded=1;whiteSpace=wrap;html=1;" parent="1" vertex="1">
                    <mxGeometry x="-610" y="-1025" width="110" height="40" as="geometry"/>
                </mxCell>
                <mxCell id="62" value="Servlet" style="text;html=1;strokeColor=none;fillColor=none;align=center;verticalAlign=middle;whiteSpace=wrap;rounded=0;fontColor=#050505;" parent="1" vertex="1">
                    <mxGeometry x="-583" y="-1044" width="60" height="20" as="geometry"/>
                </mxCell>
                <mxCell id="63" value="" style="rounded=1;whiteSpace=wrap;html=1;fillColor=#cdeb8b;strokeColor=#36393d;" parent="1" vertex="1">
                    <mxGeometry x="-467" y="-1049" width="407" height="90" as="geometry"/>
                </mxCell>
                <mxCell id="64" value="" style="endArrow=classic;html=1;entryX=0;entryY=0.25;entryDx=0;entryDy=0;exitX=1;exitY=0.25;exitDx=0;exitDy=0;" parent="1" source="60" target="65" edge="1">
                    <mxGeometry width="50" height="50" relative="1" as="geometry">
                        <mxPoint x="-523" y="-1004" as="sourcePoint"/>
                        <mxPoint x="-474" y="-1004" as="targetPoint"/>
                    </mxGeometry>
                </mxCell>
                <mxCell id="65" value="LoginLogic&lt;br&gt;execute()" style="rounded=1;whiteSpace=wrap;html=1;" parent="1" vertex="1">
                    <mxGeometry x="-406" y="-1024" width="110" height="40" as="geometry"/>
                </mxCell>
                <mxCell id="66" value="BO" style="text;html=1;strokeColor=none;fillColor=none;align=center;verticalAlign=middle;whiteSpace=wrap;rounded=0;fontColor=#050505;" parent="1" vertex="1">
                    <mxGeometry x="-379" y="-1043" width="60" height="20" as="geometry"/>
                </mxCell>
                <mxCell id="67" value="UsersDAO&lt;br&gt;findByLogin()" style="rounded=1;whiteSpace=wrap;html=1;" parent="1" vertex="1">
                    <mxGeometry x="-188" y="-1024" width="110" height="40" as="geometry"/>
                </mxCell>
                <mxCell id="68" value="DAO" style="text;html=1;strokeColor=none;fillColor=none;align=center;verticalAlign=middle;whiteSpace=wrap;rounded=0;fontColor=#050505;" parent="1" vertex="1">
                    <mxGeometry x="-161" y="-1043" width="60" height="20" as="geometry"/>
                </mxCell>
                <mxCell id="69" value="Login" style="text;html=1;strokeColor=none;fillColor=none;align=center;verticalAlign=middle;whiteSpace=wrap;rounded=0;fontColor=#050505;" parent="1" vertex="1">
                    <mxGeometry x="-473" y="-1031" width="60" height="20" as="geometry"/>
                </mxCell>
                <mxCell id="70" value="" style="endArrow=classic;html=1;fontColor=#050505;exitX=0;exitY=0.75;exitDx=0;exitDy=0;entryX=1;entryY=0.75;entryDx=0;entryDy=0;" parent="1" source="65" target="60" edge="1">
                    <mxGeometry width="50" height="50" relative="1" as="geometry">
                        <mxPoint x="-410" y="-1044" as="sourcePoint"/>
                        <mxPoint x="-360" y="-1094" as="targetPoint"/>
                    </mxGeometry>
                </mxCell>
                <mxCell id="71" value="false" style="text;html=1;strokeColor=none;fillColor=none;align=center;verticalAlign=middle;whiteSpace=wrap;rounded=0;fontColor=#050505;" parent="1" vertex="1">
                    <mxGeometry x="-472" y="-995" width="60" height="20" as="geometry"/>
                </mxCell>
                <mxCell id="72" value="" style="endArrow=classic;html=1;entryX=0;entryY=0.25;entryDx=0;entryDy=0;exitX=1;exitY=0.25;exitDx=0;exitDy=0;" parent="1" source="65" target="67" edge="1">
                    <mxGeometry width="50" height="50" relative="1" as="geometry">
                        <mxPoint x="-294" y="-1015" as="sourcePoint"/>
                        <mxPoint x="-200" y="-1014" as="targetPoint"/>
                    </mxGeometry>
                </mxCell>
                <mxCell id="73" value="Login" style="text;html=1;strokeColor=none;fillColor=none;align=center;verticalAlign=middle;whiteSpace=wrap;rounded=0;fontColor=#050505;" parent="1" vertex="1">
                    <mxGeometry x="-267" y="-1031" width="60" height="20" as="geometry"/>
                </mxCell>
                <mxCell id="74" value="" style="endArrow=classic;html=1;fontColor=#050505;exitX=0;exitY=0.75;exitDx=0;exitDy=0;entryX=1;entryY=0.75;entryDx=0;entryDy=0;" parent="1" source="67" target="65" edge="1">
                    <mxGeometry width="50" height="50" relative="1" as="geometry">
                        <mxPoint x="-200" y="-994" as="sourcePoint"/>
                        <mxPoint x="-294" y="-995" as="targetPoint"/>
                    </mxGeometry>
                </mxCell>
                <mxCell id="75" value="null" style="text;html=1;strokeColor=none;fillColor=none;align=center;verticalAlign=middle;whiteSpace=wrap;rounded=0;fontColor=#050505;" parent="1" vertex="1">
                    <mxGeometry x="-266" y="-995" width="60" height="20" as="geometry"/>
                </mxCell>
                <mxCell id="76" value="" style="shape=cylinder3;whiteSpace=wrap;html=1;boundedLbl=1;backgroundOutline=1;size=15;fontColor=#050505;" parent="1" vertex="1">
                    <mxGeometry x="687" y="-810" width="140" height="130" as="geometry"/>
                </mxCell>
                <mxCell id="80" value="" style="endArrow=classic;startArrow=classic;html=1;fontColor=#ffffff;entryX=0;entryY=0.5;entryDx=0;entryDy=0;" parent="1" source="67" target="77" edge="1">
                    <mxGeometry width="50" height="50" relative="1" as="geometry">
                        <mxPoint x="-80" y="-1004" as="sourcePoint"/>
                        <mxPoint x="-160" y="-1054" as="targetPoint"/>
                    </mxGeometry>
                </mxCell>
                <mxCell id="82" value="" style="rounded=1;whiteSpace=wrap;html=1;fillColor=#cdeb8b;strokeColor=#36393d;" parent="1" vertex="1">
                    <mxGeometry x="-623" y="-732" width="134" height="90" as="geometry"/>
                </mxCell>
                <mxCell id="83" value="JSP" style="text;html=1;strokeColor=none;fillColor=none;align=center;verticalAlign=middle;whiteSpace=wrap;rounded=0;fontColor=#050505;" parent="1" vertex="1">
                    <mxGeometry x="-582" y="-726" width="60" height="20" as="geometry"/>
                </mxCell>
                <mxCell id="30" value="login.jsp" style="rounded=1;whiteSpace=wrap;html=1;" parent="1" vertex="1">
                    <mxGeometry x="-617" y="-703" width="120" height="31" as="geometry"/>
                </mxCell>
                <mxCell id="84" value="&#10;&#10;&#10;&#10;［フィールド］&#10;・String userId&#10;・String pass" style="swimlane;startSize=0;fontColor=#000000;align=left;" parent="1" vertex="1">
                    <mxGeometry x="-483" y="-1111" width="103" height="60" as="geometry"/>
                </mxCell>
                <mxCell id="85" value="①" style="text;html=1;strokeColor=none;fillColor=none;align=center;verticalAlign=middle;whiteSpace=wrap;rounded=0;fontColor=#ffffff;" parent="1" vertex="1">
                    <mxGeometry x="-793" y="-1024" width="30" height="20" as="geometry"/>
                </mxCell>
                <mxCell id="86" value="②" style="text;html=1;strokeColor=none;fillColor=none;align=center;verticalAlign=middle;whiteSpace=wrap;rounded=0;fontColor=#0d0c0c;" parent="1" vertex="1">
                    <mxGeometry x="-509" y="-1032" width="30" height="20" as="geometry"/>
                </mxCell>
                <mxCell id="87" value="&lt;font color=&quot;#080808&quot;&gt;③&lt;/font&gt;" style="text;html=1;strokeColor=none;fillColor=none;align=center;verticalAlign=middle;whiteSpace=wrap;rounded=0;fontColor=#ffffff;" parent="1" vertex="1">
                    <mxGeometry x="-301" y="-1031" width="30" height="20" as="geometry"/>
                </mxCell>
                <mxCell id="88" value="&lt;font color=&quot;#080808&quot;&gt;④&lt;/font&gt;" style="text;html=1;strokeColor=none;fillColor=none;align=center;verticalAlign=middle;whiteSpace=wrap;rounded=0;fontColor=#ffffff;" parent="1" vertex="1">
                    <mxGeometry x="-82" y="-1023" width="30" height="20" as="geometry"/>
                </mxCell>
                <mxCell id="89" value="&lt;font color=&quot;#080808&quot;&gt;⑤&lt;/font&gt;" style="text;html=1;strokeColor=none;fillColor=none;align=center;verticalAlign=middle;whiteSpace=wrap;rounded=0;fontColor=#ffffff;" parent="1" vertex="1">
                    <mxGeometry x="-214" y="-994" width="30" height="20" as="geometry"/>
                </mxCell>
                <mxCell id="77" value="&lt;div style=&quot;&quot;&gt;&lt;span style=&quot;background-color: initial;&quot;&gt;&lt;br&gt;&lt;/span&gt;&lt;/div&gt;&lt;div style=&quot;&quot;&gt;&lt;span style=&quot;background-color: initial;&quot;&gt;&lt;br&gt;&lt;/span&gt;&lt;/div&gt;&lt;div style=&quot;&quot;&gt;&lt;span style=&quot;background-color: initial;&quot;&gt;&lt;br&gt;&lt;/span&gt;&lt;/div&gt;&lt;div style=&quot;&quot;&gt;&lt;span style=&quot;background-color: initial;&quot;&gt;&lt;br&gt;&lt;/span&gt;&lt;/div&gt;&lt;div style=&quot;&quot;&gt;&lt;span style=&quot;background-color: initial;&quot;&gt;&lt;br&gt;&lt;/span&gt;&lt;/div&gt;&lt;div style=&quot;&quot;&gt;&lt;span style=&quot;background-color: initial;&quot;&gt;&lt;br&gt;&lt;/span&gt;&lt;/div&gt;&lt;div style=&quot;&quot;&gt;&lt;span style=&quot;background-color: initial;&quot;&gt;&lt;br&gt;&lt;/span&gt;&lt;/div&gt;&lt;div style=&quot;&quot;&gt;&lt;span style=&quot;background-color: initial;&quot;&gt;&lt;br&gt;&lt;/span&gt;&lt;/div&gt;&lt;div style=&quot;&quot;&gt;&lt;span style=&quot;background-color: initial;&quot;&gt;USERS&lt;/span&gt;&lt;/div&gt;&lt;div style=&quot;&quot;&gt;&lt;span style=&quot;background-color: initial;&quot;&gt;テーブル&lt;/span&gt;&lt;/div&gt;" style="swimlane;whiteSpace=wrap;html=1;startSize=12;align=center;fillColor=#cce5ff;strokeColor=#000000;fontColor=#000000;" parent="1" vertex="1">
                    <mxGeometry x="-24" y="-1050" width="110" height="90" as="geometry"/>
                </mxCell>
                <mxCell id="92" value="&lt;font color=&quot;#080808&quot;&gt;⑥&lt;/font&gt;" style="text;html=1;strokeColor=none;fillColor=none;align=center;verticalAlign=middle;whiteSpace=wrap;rounded=0;fontColor=#ffffff;" parent="1" vertex="1">
                    <mxGeometry x="-430" y="-994" width="30" height="20" as="geometry"/>
                </mxCell>
                <mxCell id="93" value="⑦" style="text;html=1;strokeColor=none;fillColor=none;align=center;verticalAlign=middle;whiteSpace=wrap;rounded=0;fontColor=#0d0c0c;" parent="1" vertex="1">
                    <mxGeometry x="-509" y="-991" width="30" height="20" as="geometry"/>
                </mxCell>
                <mxCell id="94" value="⑧" style="text;html=1;strokeColor=none;fillColor=none;align=center;verticalAlign=middle;whiteSpace=wrap;rounded=0;fontColor=#0d0c0c;" parent="1" vertex="1">
                    <mxGeometry x="-630" y="-992" width="30" height="20" as="geometry"/>
                </mxCell>
                <mxCell id="95" value="" style="endArrow=classic;html=1;fontColor=#0d0c0c;exitX=0.75;exitY=1;exitDx=0;exitDy=0;" parent="1" source="116" edge="1">
                    <mxGeometry width="50" height="50" relative="1" as="geometry">
                        <mxPoint x="-430" y="-794" as="sourcePoint"/>
                        <mxPoint x="-610" y="-730" as="targetPoint"/>
                        <Array as="points">
                            <mxPoint x="-620" y="-750"/>
                        </Array>
                    </mxGeometry>
                </mxCell>
                <mxCell id="101" value="フォワード" style="text;html=1;strokeColor=none;fillColor=none;align=center;verticalAlign=middle;whiteSpace=wrap;rounded=0;" parent="1" vertex="1">
                    <mxGeometry x="-663" y="-773" width="67" height="20" as="geometry"/>
                </mxCell>
                <mxCell id="102" value="&lt;b&gt;【Ｃ】&lt;/b&gt;" style="text;html=1;strokeColor=none;fillColor=none;align=center;verticalAlign=middle;whiteSpace=wrap;rounded=0;fontColor=#0d0c0c;" parent="1" vertex="1">
                    <mxGeometry x="-626" y="-1057" width="43" height="35" as="geometry"/>
                </mxCell>
                <mxCell id="103" value="&lt;b&gt;【Ｖ】&lt;/b&gt;" style="text;html=1;strokeColor=none;fillColor=none;align=center;verticalAlign=middle;whiteSpace=wrap;rounded=0;fontColor=#0d0c0c;" parent="1" vertex="1">
                    <mxGeometry x="-628" y="-738" width="43" height="35" as="geometry"/>
                </mxCell>
                <mxCell id="104" value="&lt;b&gt;【Ｍ】&lt;/b&gt;" style="text;html=1;strokeColor=none;fillColor=none;align=center;verticalAlign=middle;whiteSpace=wrap;rounded=0;fontColor=#0d0c0c;" parent="1" vertex="1">
                    <mxGeometry x="-262" y="-1058" width="43" height="35" as="geometry"/>
                </mxCell>
                <mxCell id="105" value="" style="endArrow=classic;html=1;fontColor=#0d0c0c;exitX=0;exitY=0.5;exitDx=0;exitDy=0;" parent="1" source="82" edge="1">
                    <mxGeometry width="50" height="50" relative="1" as="geometry">
                        <mxPoint x="-590" y="-804" as="sourcePoint"/>
                        <mxPoint x="-750" y="-687" as="targetPoint"/>
                    </mxGeometry>
                </mxCell>
                <mxCell id="106" value="Loginに格納された&lt;br&gt;userIdとpassで検索" style="text;html=1;strokeColor=none;fillColor=none;align=center;verticalAlign=middle;whiteSpace=wrap;rounded=0;" parent="1" vertex="1">
                    <mxGeometry x="-153" y="-958" width="117" height="30" as="geometry"/>
                </mxCell>
                <mxCell id="107" value="リダイレクト" style="text;html=1;strokeColor=none;fillColor=none;align=center;verticalAlign=middle;whiteSpace=wrap;rounded=0;" parent="1" vertex="1">
                    <mxGeometry x="-719" y="-958" width="82" height="20" as="geometry"/>
                </mxCell>
                <mxCell id="108" value="ブラウザ" style="rounded=1;whiteSpace=wrap;html=1;" parent="1" vertex="1">
                    <mxGeometry x="-800" y="-930" width="131" height="80" as="geometry"/>
                </mxCell>
                <mxCell id="110" value="" style="endArrow=classic;html=1;exitX=0.5;exitY=1;exitDx=0;exitDy=0;entryX=1;entryY=0.25;entryDx=0;entryDy=0;" parent="1" source="94" target="108" edge="1">
                    <mxGeometry width="50" height="50" relative="1" as="geometry">
                        <mxPoint x="-640" y="-820" as="sourcePoint"/>
                        <mxPoint x="-669" y="-936" as="targetPoint"/>
                    </mxGeometry>
                </mxCell>
                <mxCell id="111" value="" style="rounded=1;whiteSpace=wrap;html=1;fillColor=#cdeb8b;strokeColor=#36393d;" parent="1" vertex="1">
                    <mxGeometry x="-622" y="-886" width="134" height="90" as="geometry"/>
                </mxCell>
                <mxCell id="112" value="LoginServlet&lt;br&gt;doGet()" style="rounded=1;whiteSpace=wrap;html=1;" parent="1" vertex="1">
                    <mxGeometry x="-610" y="-861" width="110" height="40" as="geometry"/>
                </mxCell>
                <mxCell id="113" value="Servlet" style="text;html=1;strokeColor=none;fillColor=none;align=center;verticalAlign=middle;whiteSpace=wrap;rounded=0;fontColor=#050505;" parent="1" vertex="1">
                    <mxGeometry x="-583" y="-880" width="60" height="20" as="geometry"/>
                </mxCell>
                <mxCell id="116" value="⑨" style="text;html=1;strokeColor=none;fillColor=none;align=center;verticalAlign=middle;whiteSpace=wrap;rounded=0;fontColor=#0d0c0c;" parent="1" vertex="1">
                    <mxGeometry x="-630" y="-828" width="30" height="20" as="geometry"/>
                </mxCell>
                <mxCell id="117" value="&lt;b&gt;【Ｃ】&lt;/b&gt;" style="text;html=1;strokeColor=none;fillColor=none;align=center;verticalAlign=middle;whiteSpace=wrap;rounded=0;fontColor=#0d0c0c;" parent="1" vertex="1">
                    <mxGeometry x="-626" y="-893" width="43" height="35" as="geometry"/>
                </mxCell>
                <mxCell id="118" value="" style="endArrow=classic;html=1;exitX=1;exitY=0.75;exitDx=0;exitDy=0;entryX=0;entryY=0.75;entryDx=0;entryDy=0;" parent="1" source="108" target="111" edge="1">
                    <mxGeometry width="50" height="50" relative="1" as="geometry">
                        <mxPoint x="-640" y="-870" as="sourcePoint"/>
                        <mxPoint x="-590" y="-920" as="targetPoint"/>
                    </mxGeometry>
                </mxCell>
            </root>
        </mxGraphModel>
    </diagram>
</mxfile>